<!DOCTYPE svg PUBLIC "-//W3C//DTD SVG 1.1//EN" "http://www.w3.org/Graphics/SVG/1.1/DTD/svg11.dtd">
<!-- Uploaded to: SVG Repo, www.svgrepo.com, Transformed by: SVG Repo Mixer Tools -->
<svg xmlns:dc="http://purl.org/dc/elements/1.1/" xmlns:cc="http://creativecommons.org/ns#" xmlns:rdf="http://www.w3.org/1999/02/22-rdf-syntax-ns#" xmlns:svg="http://www.w3.org/2000/svg" xmlns="http://www.w3.org/2000/svg" xmlns:sodipodi="http://sodipodi.sourceforge.net/DTD/sodipodi-0.dtd" xmlns:inkscape="http://www.inkscape.org/namespaces/inkscape" width="64px" height="64px" viewBox="-122.88 -122.88 629.76 629.76" id="svg2" version="1.1" inkscape:version="0.91 r13725" sodipodi:docname="edit-delete.svg" fill="#788292" stroke="#788292">
<g id="SVGRepo_bgCarrier" stroke-width="0"/>
<g id="SVGRepo_tracerCarrier" stroke-linecap="round" stroke-linejoin="round"/>
<g id="SVGRepo_iconCarrier"> <title id="title3372">edit-copy</title> <defs id="defs4"/> <sodipodi:namedview id="base" pagecolor="#ffffff" bordercolor="#666666" borderopacity="1.0" inkscape:pageopacity="0.0" inkscape:pageshadow="2" inkscape:zoom="0.98994949" inkscape:cx="212.06379" inkscape:cy="248.74021" inkscape:document-units="px" inkscape:current-layer="layer1" showgrid="true" fit-margin-top="448" fit-margin-right="384" fit-margin-left="0" fit-margin-bottom="0" units="px" inkscape:window-width="1196" inkscape:window-height="852" inkscape:window-x="132" inkscape:window-y="423" inkscape:window-maximized="0" inkscape:snap-bbox="true" inkscape:bbox-nodes="true"> <inkscape:grid type="xygrid" id="grid3347" spacingx="16" spacingy="16" empspacing="2" originx="0" originy="-1.7498462e-005"/> </sodipodi:namedview> <metadata id="metadata7"> <rdf:rdf> <cc:work rdf:about=""> <dc:format>image/svg+xml</dc:format> <dc:type rdf:resource="http://purl.org/dc/dcmitype/StillImage"/> <dc:title>edit-copy</dc:title> </cc:work> </rdf:rdf> </metadata> <g inkscape:label="Layer 1" inkscape:groupmode="layer" id="layer1" transform="translate(0,-604.36224)"> <path style="fill-opacity:1;stroke:none;stroke-width:30;stroke-linecap:round;stroke-miterlimit:4;stroke-dasharray:none;stroke-opacity:1" d="m 32,732.36224 0,319.99996 32,0 16,0 224,0 16,0 32,0 0,-319.99996 -32,0 -240,0 -48,0 z m 48,32 48,0 0,255.99996 -48,0 0,-255.99996 z m 80,0 64,0 0,255.99996 -64,0 0,-255.99996 z m 96,0 48,0 0,255.99996 -48,0 0,-255.99996 z" id="rect3374" inkscape:connector-curvature="0"/> <path style="fill-opacity:1;stroke:none;stroke-width:30;stroke-linecap:round;stroke-miterlimit:4;stroke-dasharray:none;stroke-opacity:1" d="m 144,604.36226 c -8.864,0 -16,7.136 -16,16 l 0,16 16,0 96,0 16,0 0,-16 c 0,-8.864 -7.136,-16 -16,-16 l -96,0 z" id="rect3376" inkscape:connector-curvature="0"/> <path style="fill-opacity:1;stroke:none;stroke-width:30;stroke-linecap:round;stroke-miterlimit:4;stroke-dasharray:none;stroke-opacity:1" d="m 16,668.36224 c -8.863996,0 -16,7.136 -16,16 l 0,16 16,0 352,0 16,0 0,-16 c 0,-8.864 -7.136,-16 -16,-16 l -352,0 z" id="rect3422" inkscape:connector-curvature="0"/> </g> </g>
</svg>